<svg width="32" height="32" viewBox="0 0 32 32" xmlns="http://www.w3.org/2000/svg">
  <!-- Central hub/control unit -->
  <rect x="8" y="8" width="16" height="16" fill="#2c5aa0" stroke="#1a3d73" stroke-width="1.5" rx="2"/>
  
  <!-- Control center screen -->
  <rect x="10" y="10" width="12" height="8" fill="#4a7bc8" stroke="#1a3d73" stroke-width="1" rx="1"/>
  <rect x="11" y="11" width="10" height="6" fill="#87ceeb"/>
  
  <!-- Signal waves emanating from hub -->
  <path d="M 16 2 Q 20 6 20 10" stroke="#f9e79f" stroke-width="1.5" fill="none"/>
  <path d="M 16 2 Q 12 6 12 10" stroke="#f9e79f" stroke-width="1.5" fill="none"/>
  <path d="M 2 16 Q 6 12 10 12" stroke="#f9e79f" stroke-width="1.5" fill="none"/>
  <path d="M 2 16 Q 6 20 10 20" stroke="#f9e79f" stroke-width="1.5" fill="none"/>
  <path d="M 30 16 Q 26 12 22 12" stroke="#f9e79f" stroke-width="1.5" fill="none"/>
  <path d="M 30 16 Q 26 20 22 20" stroke="#f9e79f" stroke-width="1.5" fill="none"/>
  <path d="M 16 30 Q 12 26 12 22" stroke="#f9e79f" stroke-width="1.5" fill="none"/>
  <path d="M 16 30 Q 20 26 20 22" stroke="#f9e79f" stroke-width="1.5" fill="none"/>
  
  <!-- Control buttons -->
  <circle cx="13" cy="21" r="1.5" fill="#f9e79f" stroke="#d4c65d" stroke-width="0.5"/>
  <circle cx="16" cy="21" r="1.5" fill="#f9e79f" stroke="#d4c65d" stroke-width="0.5"/>
  <circle cx="19" cy="21" r="1.5" fill="#f9e79f" stroke="#d4c65d" stroke-width="0.5"/>
  
  <!-- Central antenna/transmitter -->
  <rect x="15.5" y="6" width="1" height="4" fill="#fff"/>
  <circle cx="16" cy="5" r="1" fill="#ff6b6b"/>
</svg>